<?xml version="1.0" encoding="UTF-8" standalone="no"?>
<svg
   xmlns:dc="http://purl.org/dc/elements/1.1/"
   xmlns:cc="http://creativecommons.org/ns#"
   xmlns:rdf="http://www.w3.org/1999/02/22-rdf-syntax-ns#"
   xmlns:svg="http://www.w3.org/2000/svg"
   xmlns="http://www.w3.org/2000/svg"
   xmlns:sodipodi="http://sodipodi.sourceforge.net/DTD/sodipodi-0.dtd"
   xmlns:inkscape="http://www.inkscape.org/namespaces/inkscape"
   width="420mm"
   height="297mm"
   viewBox="0 0 420 296.99999"
   version="1.1"
   id="svg837"
   sodipodi:docname="front_back_sides.svg"
   inkscape:version="0.92.4 (5da689c313, 2019-01-14)">
  <metadata
     id="metadata843">
    <rdf:RDF>
      <cc:Work
         rdf:about="">
        <dc:format>image/svg+xml</dc:format>
        <dc:type
           rdf:resource="http://purl.org/dc/dcmitype/StillImage" />
        <dc:title />
      </cc:Work>
    </rdf:RDF>
  </metadata>
  <defs
     id="defs841" />
  <sodipodi:namedview
     pagecolor="#ffffff"
     bordercolor="#666666"
     borderopacity="1"
     objecttolerance="10"
     gridtolerance="10"
     guidetolerance="10"
     inkscape:pageopacity="0"
     inkscape:pageshadow="2"
     inkscape:window-width="1440"
     inkscape:window-height="855"
     id="namedview839"
     showgrid="false"
     inkscape:zoom="0.54210085"
     inkscape:cx="975.80052"
     inkscape:cy="744.31042"
     inkscape:window-x="78"
     inkscape:window-y="91"
     inkscape:window-maximized="0"
     inkscape:current-layer="svg837"
     inkscape:document-rotation="0" />
  <g
     id="Sketch030"
     transform="matrix(0,1,1,0,-5.0000023,7.9559987)"
     style="stroke:#d30000;stroke-opacity:1;stroke-width:0.025;stroke-miterlimit:4;stroke-dasharray:none">
    <path
       id="Sketch030_w0000"
       d="M 3,15 V 82.5 H 0 v 10 h 3 v 75 H 0 v 10 h 3 v 75 H 0 v 10 h 3 v 75 H 0 v 10 H 3 V 415 h 5 v -3 h 5 v 3 h 5 v -3 h 5 v 3 h 5 v -3 h 5 v 3 h 5 v -67.5 h 3 v -10 h -3 v -75 h 3 v -10 h -3 v -75 h 3 v -10 h -3 v -75 h 3 v -10 H 38 V 15 h -5 v 3 h -5 v -3 h -5 v 3 h -5 v -3 h -5 v 3 H 8 V 15 H 3"
       stroke="#000000"
       stroke-width="0.35 px"
       style="fill:none;fill-rule:evenodd;stroke-width:0.025;stroke-miterlimit:4;stroke-dasharray:none;stroke:#d30000;stroke-opacity:1" />
    <title
       id="title834">b'Sketch030'</title>
  </g>
  <path
     id="Sketch030_w0000-1"
     d="M 9.9999987,53.385557 H 77.499999 v -3 h 10 v 3 H 162.5 v -3 h 10 v 3 h 75 v -3 h 10 v 3 h 75 v -3 h 10 v 3 H 410 v 5 h -3 v 5 h 3 v 5 h -3 v 5 h 3 v 5 h -3 v 5 h 3 v 5 h -67.5 v 3 h -10 v -3 h -75 v 3 h -10 v -3 h -75 v 3 h -10 v -3 H 87.499999 v 3 h -10 v -3 H 9.9999987 v -5 h 3.0000003 v -5 H 9.9999987 v -5 h 3.0000003 v -5 H 9.9999987 v -5 h 3.0000003 v -5 H 9.9999987 v -5"
     stroke="#000000"
     stroke-width="0.35 px"
     style="fill:none;fill-rule:evenodd;stroke-width:0.025;stroke-miterlimit:4;stroke-dasharray:none;stroke:#d30000;stroke-opacity:1" />
  <path
     id="Sketch030_w0001"
     d="m 40.249999,68.385557 h 10 v 5 h -10 v -5"
     stroke="#000000"
     stroke-width="0.35 px"
     style="fill:none;fill-rule:evenodd;stroke-width:0.025;stroke-miterlimit:4;stroke-dasharray:none;stroke:#d30000;stroke-opacity:1" />
  <circle
     cx="70.885559"
     cy="36.599998"
     r="2"
     stroke="#000000"
     stroke-width="0.35 px"
     style="fill:none;stroke-width:0.025;stroke-miterlimit:4;stroke-dasharray:none;stroke:#d30000;stroke-opacity:1"
     id="circle1420"
     transform="matrix(0,1,1,0,0,0)" />
  <circle
     cx="70.885559"
     cy="53.900002"
     r="2"
     stroke="#000000"
     stroke-width="0.35 px"
     style="fill:none;stroke-width:0.025;stroke-miterlimit:4;stroke-dasharray:none;stroke:#d30000;stroke-opacity:1"
     id="circle1422"
     transform="matrix(0,1,1,0,0,0)" />
  <g
     id="Sketch031-3"
     transform="matrix(1,0,0,-1,-415,91.972933)"
     style="stroke:#d30000;stroke-opacity:1;stroke-width:0.025;stroke-miterlimit:4;stroke-dasharray:none">
    <path
       id="Sketch031_w0000-54"
       d="m 428,-3 h 45.5 v 3 h 10 v -3 h 75 v 3 h 10 v -3 h 75 v 3 h 10 V -3 H 699 v -5 h 3 v -5 h -3 v -5 h 3 v -5 h -3 v -5 h 3 v -5 h -3 v -5 h -45.5 v -3 h -10 v 3 h -75 v -3 h -10 v 3 h -75 v -3 h -10 v 3 H 428 v 5 h -3 v 5 h 3 v 5 h -3 v 5 h 3 v 5 h -3 v 5 h 3 v 5"
       stroke="#000000"
       stroke-width="0.35 px"
       style="fill:none;fill-rule:evenodd;stroke-width:0.025;stroke-miterlimit:4;stroke-dasharray:none;stroke:#d30000;stroke-opacity:1" />
    <title
       id="title2001">b'Sketch031'</title>
  </g>
  <g
     id="Sketch031-3-7"
     transform="matrix(1,0,0,-1,-415,136.57154)"
     style="stroke:#d30000;stroke-opacity:1;stroke-width:0.025;stroke-miterlimit:4;stroke-dasharray:none">
    <path
       id="Sketch031_w0000-54-5"
       d="m 428,-3 h 45.5 v 3 h 10 v -3 h 75 v 3 h 10 v -3 h 75 v 3 h 10 V -3 H 699 v -5 h 3 v -5 h -3 v -5 h 3 v -5 h -3 v -5 h 3 v -5 h -3 v -5 h -45.5 v -3 h -10 v 3 h -75 v -3 h -10 v 3 h -75 v -3 h -10 v 3 H 428 v 5 h -3 v 5 h 3 v 5 h -3 v 5 h 3 v 5 h -3 v 5 h 3 v 5"
       stroke="#000000"
       stroke-width="0.35 px"
       style="fill:none;fill-rule:evenodd;stroke-width:0.025;stroke-miterlimit:4;stroke-dasharray:none;stroke:#d30000;stroke-opacity:1" />
    <title
       id="title2001-5">b'Sketch031'</title>
  </g>
  <circle
     cx="70.885559"
     cy="72.462692"
     r="2.8813562"
     stroke="#000000"
     stroke-width="0.35 px"
     style="fill:none;stroke-width:0.025;stroke-miterlimit:4;stroke-dasharray:none;stroke:#d30000;stroke-opacity:1"
     id="circle1424-2"
     transform="matrix(0,1,1,0,0,0)" />
</svg>
